<?xml version="1.0" encoding="utf-8"?>
<!-- Generator: Adobe Illustrator 24.0.2, SVG Export Plug-In . SVG Version: 6.00 Build 0)  -->
<svg version="1.1" id="Layer_1" xmlns="http://www.w3.org/2000/svg" xmlns:xlink="http://www.w3.org/1999/xlink" x="0px" y="0px"
	 viewBox="0 0 1320 578.69" style="enable-background:new 0 0 1320 578.69;" xml:space="preserve">
<style type="text/css">
	.st0{fill:#101820;}
</style>
<path class="st0" d="M473.13,578.68l-52.59-129.14H177.26l-52.72,129.14H-4.58L241.99-0.72h116.7l246.77,579.41H473.13V578.68z
	 M298.9,151.32l-76.44,186.56h152.76L298.9,151.32z"/>
<path class="st0" d="M883.47,259.08c-41.86,0-74.76,12.66-98.7,37.99c-23.94,25.33-35.92,64.69-35.93,118.09v163.53H623.3V135.96
	h125.54v89.21c12.67-30.28,30.02-54.51,52.03-72.67c22.02-18.17,51.76-26.43,89.21-24.79v131.31L883.47,259.08z"/>
<path class="st0" d="M1319.11,379.87c-0.28,4.32-0.68,9.44-1.19,15.36h-301.43c5.93,28.02,18.18,49.16,36.77,63.43
	s41.62,21.41,69.08,21.41c18.85,0.31,37.56-3.26,54.97-10.51c16.17-7,32.86-18.31,50.09-33.93l70.3,62.24
	c-20.11,25.03-45.49,45.31-74.34,59.4c-29.11,14.26-63.33,21.39-102.64,21.41c-30.78,0.27-61.33-5.21-90.1-16.16
	c-26.89-10.24-51.38-25.91-71.92-46.06c-20.36-20.16-36.45-44.21-47.3-70.73c-11.32-27.19-16.98-57.48-16.98-90.89v-1.62
	c-0.16-29.82,5.18-59.41,15.76-87.28c9.95-26.57,24.9-50.98,44.04-71.92c39.66-43.07,95.81-67.17,154.35-66.25
	c36.06,0,67.31,6.46,93.73,19.39c25.57,12.24,48.08,30.04,65.9,52.08c17.74,22.26,30.92,47.8,38.79,75.16
	c8.4,28.74,12.59,58.54,12.45,88.48v1.62C1319.53,370.46,1319.38,375.57,1319.11,379.87z M1170.83,251.79
	c-15.63-16.96-36.38-25.44-62.24-25.44s-46.74,8.35-62.64,25.04c-15.9,16.71-26.27,39.07-31.12,67.07h185.07
	C1196.14,290.97,1186.45,268.75,1170.83,251.79z"/>
</svg>
