<?xml version="1.0" encoding="utf-8"?>
<!-- Generator: Adobe Illustrator 26.3.1, SVG Export Plug-In . SVG Version: 6.00 Build 0)  -->
<svg version="1.1" id="Layer_1" xmlns="http://www.w3.org/2000/svg" xmlns:xlink="http://www.w3.org/1999/xlink" x="0px" y="0px"
	 viewBox="0 0 841.89 595.28" style="enable-background:new 0 0 841.89 595.28;" xml:space="preserve">
<style type="text/css">
	.st0{fill:#FFE500;}
</style>
<path class="st0" d="M363.66,238.72c-14.96,0-27.73,1.38-38.31,4.14c-10.65,2.77-21.04,6.45-31.06,11l11.39,33.47
	c7.96-3.34,16.15-6.11,24.5-8.28c9.04-2.19,18.31-3.23,27.61-3.11c14.5,0,25.6,3.33,33.3,10s11.55,16.33,11.56,29v4.49
	c-7.28-2.32-14.71-4.15-22.23-5.48c-9.3-1.5-18.71-2.2-28.13-2.07c-9.95-0.08-19.87,1.14-29.51,3.63
	c-8.44,2.11-16.4,5.8-23.47,10.87c-6.51,4.78-11.78,11.05-15.36,18.29c-0.9,1.83-1.69,3.71-2.36,5.63c-0.38-5.12-1.44-10.16-3.14-15
	c-2.13-6.06-5.45-11.62-9.77-16.37c-4.39-4.71-9.49-8.72-15.1-11.88c-6.19-3.49-12.68-6.43-19.38-8.79
	c4.5-2.41,8.79-5.18,12.83-8.29c4.2-3.19,7.9-6.97,11-11.24c3.24-4.6,5.78-9.65,7.53-15c2.02-6.37,2.98-13.04,2.86-19.72
	c0-19.13-7.12-34.23-21.36-45.29s-33.53-16.59-57.87-16.6H81.01V423.7h111.63c12.3,0.12,24.57-1.32,36.51-4.3
	c11.03-2.87,20.45-7.12,28.26-12.75c7.61-5.4,13.81-12.55,18.09-20.85c1.29-2.54,2.37-5.17,3.25-7.88c0.55,6.14,2.25,12.13,5,17.65
	c3.4,6.83,8.23,12.85,14.16,17.64c6.1,4.82,13.06,8.44,20.51,10.66c8.05,2.45,16.42,3.68,24.84,3.63c13.81,0,25.55-2.53,35.21-7.59
	c9.08-4.6,17.16-10.93,23.81-18.64v22.43h41.44v-108c0-24.38-6.56-43.3-19.67-56.77C410.94,245.47,390.81,238.73,363.66,238.72z
	 M123.12,219.72H184c13.75,0,24.24,2.72,31.47,8.15c7.23,5.43,10.84,13.13,10.84,23.08c0,11.33-4.13,19.72-12.39,25.15
	c-8.26,5.43-19.26,8.15-33,8.16h-57.8V219.72z M227.42,377.63c-8.26,5.64-19.62,8.46-34.07,8.45h-70.23v-66.26h67.09
	c16.75,0,29.2,2.88,37.33,8.63s12.21,13.81,12.23,24.16C239.77,363.68,235.65,372.02,227.42,377.63z M403.42,357.78
	c0.07,5.45-1.17,10.84-3.63,15.71c-2.44,4.74-5.92,8.87-10.18,12.08c-4.63,3.46-9.83,6.09-15.36,7.76
	c-6.2,1.9-12.66,2.83-19.15,2.76c-9.9,0-18.23-2.3-25-6.9c-6.77-4.6-10.16-11.27-10.18-20v-0.69c0-9.43,3.67-16.67,11-21.74
	s17.57-7.6,30.72-7.59c7.68-0.04,15.35,0.64,22.9,2.04c6.41,1.15,12.71,2.88,18.81,5.18L403.42,357.78z"/>
<path class="st0" d="M570.55,333.45c-5.6-4.13-11.69-7.55-18.13-10.18c-6.67-2.76-13.33-5.17-20-7.24c-5.29-1.61-10.4-3.28-15.35-5
	c-4.5-1.53-8.88-3.37-13.12-5.52c-3.39-1.66-6.49-3.88-9.15-6.56c-2.23-2.25-3.47-5.29-3.45-8.45v-0.69c0-5.29,2.24-9.66,6.73-13.12
	c4.49-3.46,10.76-5.18,18.81-5.17c8.48,0.18,16.88,1.76,24.84,4.69c9.28,3.26,18.19,7.48,26.58,12.6l16.56-29.68
	c-9.92-6.56-20.73-11.68-32.1-15.18c-11.27-3.61-23.02-5.47-34.85-5.53c-8.6-0.05-17.16,1.23-25.37,3.8
	c-7.54,2.31-14.57,6.05-20.71,11c-5.83,4.79-10.54,10.8-13.8,17.61c-3.4,7.23-5.11,15.13-5,23.12v0.69c0,8.74,1.72,16.04,5.17,21.91
	c3.38,5.79,7.9,10.84,13.29,14.84c5.6,4.13,11.76,7.43,18.29,9.82c6.78,2.53,13.51,4.83,20.19,6.9c5.29,1.61,10.41,3.16,15.36,4.66
	c4.51,1.33,8.89,3.07,13.08,5.19c3.4,1.65,6.46,3.93,9,6.73c2.18,2.49,3.35,5.7,3.28,9v0.69c0.14,5.73-2.66,11.12-7.41,14.32
	c-4.95,3.57-11.92,5.35-20.89,5.35c-10.09-0.13-20.08-2.05-29.5-5.69c-10.81-4.11-20.98-9.75-30.2-16.74l-18.64,28.3
	c11.26,8.81,23.92,15.67,37.45,20.29c12.81,4.49,26.28,6.82,39.86,6.9c8.98,0.06,17.93-1.16,26.57-3.62
	c7.8-2.17,15.12-5.8,21.57-10.7c6.1-4.72,11.01-10.8,14.32-17.77c3.46-7.13,5.19-15.53,5.18-25.2v-0.61c0-8.28-1.73-15.28-5.18-21
	C580.42,342.47,575.91,337.45,570.55,333.45z"/>
<polygon class="st0" points="685.99,315.68 758.46,241.48 707.73,241.48 632.15,322.24 632.15,171.77 590.05,171.77 590.05,423.7 
	632.15,423.7 632.15,371.59 657.69,345.02 712.56,423.7 760.88,423.7 "/>
</svg>
