<?xml version="1.0" encoding="utf-8"?>
<!-- Generator: Adobe Illustrator 26.3.1, SVG Export Plug-In . SVG Version: 6.00 Build 0)  -->
<svg version="1.1" id="a" xmlns="http://www.w3.org/2000/svg" xmlns:xlink="http://www.w3.org/1999/xlink" x="0px" y="0px"
	 viewBox="0 0 820 268" style="enable-background:new 0 0 960 268;" xml:space="preserve">
<style type="text/css">
	.st0{fill:#FFE500;}
	.st1{fill:#FFFFFF;}
</style>
<path class="st0" d="M152.65,130.86h-24.86l-29.3-84.97l-29.3,84.97H44.3L-0.04,0.07l30.64,0l26.87,87.93L86.46,0.07h24.74l29,87.93
	L167.23-0.3h30.01L152.65,130.86z"/>
<path class="st0" d="M267.23,135.12V79.79c0-6.66-1.49-11.69-4.46-15.08c-2.97-3.39-7.17-5.09-12.61-5.09
	c-5.44,0-9.74,1.7-12.9,5.09c-3.15,3.39-4.73,8.42-4.73,15.08v55.33h-28.2V-0.29h28.2v50.21c1.63-2.14,3.39-4.17,5.29-6.07
	c1.94-1.94,4.08-3.67,6.4-5.13c2.42-1.55,5.05-2.76,7.8-3.6c3.13-0.91,6.38-1.36,9.64-1.31c10.76,0,19.08,3.28,24.95,9.83
	c5.88,6.56,8.81,15.59,8.81,27.09v64.4H267.23z"/>
<path class="st0" d="M367.07,129.94v-10.76c-3.49,3.86-7.72,6.98-12.43,9.19c-4.83,2.29-10.71,3.43-17.63,3.43
	c-4.5,0.03-8.98-0.62-13.28-1.95c-3.97-1.21-7.66-3.19-10.85-5.84c-3.11-2.62-5.61-5.88-7.32-9.56c-1.87-4.11-2.8-8.59-2.7-13.1
	v-0.37c0-5.44,0.99-10.15,2.97-14.1c1.92-3.89,4.76-7.27,8.26-9.83c3.8-2.73,8.08-4.71,12.61-5.84c5.3-1.35,10.76-2.01,16.24-1.95
	c4.45-0.05,8.89,0.32,13.26,1.12c3.74,0.73,7.43,1.73,11.04,2.97v-1.67c0-5.94-1.79-10.45-5.38-13.55
	c-3.59-3.09-8.9-4.64-15.96-4.64c-4.83-0.06-9.65,0.4-14.38,1.39c-4.45,1.02-8.82,2.35-13.08,3.99l-7.05-21.52
	c5.53-2.38,11.25-4.3,17.09-5.75c5.94-1.49,13.12-2.23,21.52-2.23c15.46,0,26.72,3.77,33.76,11.32
	c7.04,7.54,10.57,18.06,10.58,31.54v57.7L367.07,129.94z M367.62,89.87c-2.65-1.17-5.42-2.07-8.25-2.69
	c-3.21-0.7-6.48-1.04-9.77-1.02c-6.06,0-10.82,1.18-14.28,3.53c-3.46,2.35-5.19,5.75-5.19,10.2v0.37c0,3.83,1.42,6.8,4.27,8.91
	c2.85,2.1,6.55,3.16,11.12,3.17c6.68,0,12.03-1.61,16.05-4.82c3.91-3,6.16-7.69,6.03-12.62L367.62,89.87z"/>
<path class="st0" d="M453.49,130.04c-4.05,1.11-8.23,1.64-12.43,1.58c-3.97,0.04-7.93-0.42-11.78-1.39
	c-3.39-0.86-6.52-2.55-9.1-4.92c-2.67-2.55-4.7-5.68-5.93-9.16c-1.42-3.77-2.13-8.57-2.14-14.38V54.65h-11.87V30.5h11.87V5.08h28.2
	V30.5h23.38v24.12h-23.38v42.46c0,6.43,3.03,9.65,9.09,9.65c4.86,0.02,9.65-1.19,13.92-3.52v22.63
	C460.23,127.63,456.93,129.05,453.49,130.04z"/>
<path class="st0" d="M663.5,130.87h-24.86l-29.3-84.97l-29.3,84.97h-24.89L510.69-0.29h30.85l26.79,88.31l29.13-88.31h24.49
	l29.12,88.31L678.3-0.3h29.68L663.5,130.87z"/>
<path class="st0" d="M807.56,86.53c-0.07,0.99-0.16,2.17-0.28,3.53h-69.2c1.36,6.43,4.17,11.28,8.44,14.56
	c4.27,3.28,9.56,4.92,15.87,4.92c4.33,0.06,8.62-0.77,12.62-2.44c3.71-1.6,7.54-4.2,11.5-7.8l16.14,14.28
	c-4.62,5.75-10.46,10.41-17.09,13.64c-6.68,3.28-14.53,4.92-23.56,4.92c-7.07,0.06-14.08-1.2-20.69-3.71
	c-6.16-2.35-11.77-5.95-16.48-10.57c-4.67-4.63-8.36-10.15-10.85-16.24c-2.67-6.63-3.99-13.72-3.89-20.87v-0.37
	c-0.04-6.84,1.19-13.64,3.62-20.03c2.28-6.1,5.71-11.71,10.11-16.51c9.1-9.88,21.97-15.42,35.4-15.22c8.29,0,15.46,1.49,21.52,4.46
	c5.87,2.82,11.03,6.9,15.12,11.96c4.07,5.11,7.1,10.98,8.91,17.26c1.93,6.6,2.9,13.44,2.88,20.31v0.43
	C807.65,84.37,807.62,85.54,807.56,86.53z M773.52,57.13c-3.61-3.89-8.37-5.83-14.29-5.83s-10.71,1.92-14.38,5.76
	c-3.66,3.83-6.04,8.96-7.14,15.39h42.48C779.33,66.13,777.11,61.03,773.52,57.13z"/>
<path class="st1" d="M114.93,228.44c-3.24,7.78-8.08,14.79-14.19,20.6c-6.34,5.95-13.77,10.61-21.89,13.73
	c-8.47,3.34-17.78,5.01-27.92,5.01H0.26V137.9h50.66c10.14,0,19.44,1.63,27.92,4.88c8.12,3.08,15.56,7.72,21.89,13.67
	c6.1,5.78,10.93,12.76,14.19,20.5c3.38,8.08,5.09,16.75,5.01,25.51v0.38C120.01,211.63,118.3,220.33,114.93,228.44z M90.07,202.85
	c0.05-5.39-0.92-10.75-2.88-15.77c-1.8-4.64-4.51-8.86-7.98-12.43c-3.5-3.53-7.7-6.28-12.34-8.07c-5.09-1.96-10.5-2.94-15.96-2.88
	H28.85v78.28h22.08c5.44,0.06,10.85-0.88,15.96-2.78c4.64-1.74,8.85-4.46,12.34-7.98c3.44-3.52,6.15-7.68,7.98-12.24
	c1.97-5.02,2.95-10.38,2.88-15.77L90.07,202.85z"/>
<path class="st1" d="M229.95,236.37c-2.66,6.16-6.51,11.74-11.32,16.42c-4.93,4.77-10.73,8.55-17.09,11.13
	c-6.82,2.77-14.13,4.16-21.5,4.08c-7.3,0.07-14.55-1.29-21.33-3.99c-6.32-2.5-12.09-6.22-16.98-10.94
	c-4.77-4.65-8.59-10.2-11.23-16.32c-2.74-6.36-4.13-13.22-4.08-20.14v-0.37c-0.06-6.92,1.33-13.79,4.08-20.14
	c2.66-6.16,6.51-11.74,11.32-16.42c4.93-4.77,10.74-8.55,17.09-11.13c6.83-2.77,14.15-4.16,21.52-4.08
	c7.3-0.07,14.55,1.29,21.33,3.99c6.32,2.51,12.09,6.22,16.98,10.94c4.77,4.66,8.59,10.2,11.23,16.33
	c2.75,6.36,4.14,13.22,4.08,20.14v0.37C234.11,223.14,232.71,230.01,229.95,236.37z M206.21,216.22c0.03-3.58-0.59-7.13-1.83-10.48
	c-2.45-6.54-7.38-11.84-13.73-14.75c-3.33-1.51-6.95-2.26-10.6-2.22c-3.73-0.07-7.43,0.66-10.85,2.14
	c-3.07,1.36-5.82,3.35-8.07,5.84c-2.25,2.51-3.98,5.44-5.1,8.63c-1.19,3.37-1.78,6.92-1.76,10.49v0.37
	c-0.03,3.58,0.59,7.13,1.83,10.49c2.44,6.51,7.34,11.8,13.63,14.75c3.35,1.52,6.99,2.28,10.67,2.22c3.73,0.07,7.43-0.65,10.85-2.13
	c3.07-1.36,5.82-3.35,8.07-5.84c2.26-2.51,4.01-5.44,5.15-8.62c1.19-3.37,1.79-6.91,1.76-10.48L206.21,216.22z"/>
</svg>
