<?xml version="1.0" encoding="utf-8"?>
<!-- Generator: Adobe Illustrator 26.5.0, SVG Export Plug-In . SVG Version: 6.00 Build 0)  -->
<svg version="1.1" id="Layer_1" xmlns="http://www.w3.org/2000/svg" xmlns:xlink="http://www.w3.org/1999/xlink" x="0px" y="0px"
	 viewBox="0 0 560 288" style="enable-background:new 0 0 560 288;" xml:space="preserve">
<style type="text/css">
	.st0{fill:#FFFFFF;}
	.st1{fill:#FFE500;}
</style>
<path class="st0" d="M76.44,279.56h-3.95l-3.79-8.61H50.92l-3.87,8.61h-3.79l14.86-32.87h3.48L76.44,279.56z M59.77,251.04
	l-7.43,16.67H67.2L59.77,251.04z"/>
<path class="st0" d="M109.31,272.85c-0.63,1.5-1.5,2.84-2.61,3.95c-1.03,1.03-2.29,1.9-3.71,2.45c-1.34,0.55-2.77,0.87-4.27,0.87
	c-1.98,0-3.87-0.47-5.61-1.5c-0.71-0.47-1.42-1.03-2.05-1.66c-0.55-0.63-1.11-1.26-1.58-1.98v12.09h-3.63v-31.61h3.63v4.9
	c0.47-0.71,1.03-1.42,1.66-2.05s1.26-1.26,2.05-1.74c0.79-0.47,1.58-0.87,2.53-1.19c0.95-0.32,2.05-0.47,3.08-0.47
	c1.42,0,2.84,0.32,4.19,0.87c1.42,0.55,2.61,1.42,3.71,2.45c1.11,1.11,2.05,2.45,2.61,3.95
	C110.66,265.66,110.66,269.45,109.31,272.85L109.31,272.85z M105.99,263.68c-0.4-1.11-1.03-2.05-1.82-2.92
	c-0.79-0.79-1.66-1.42-2.69-1.9c-1.03-0.47-2.13-0.63-3.24-0.63c-1.11,0-2.21,0.24-3.24,0.71c-1.03,0.47-1.98,1.11-2.77,1.9
	c-0.87,0.87-1.5,1.82-1.98,2.92c-0.47,1.19-0.71,2.53-0.71,3.79c0,1.34,0.24,2.61,0.71,3.87c0.47,1.11,1.11,2.13,1.98,2.92
	c0.79,0.79,1.74,1.42,2.77,1.9c1.03,0.47,2.13,0.71,3.24,0.71c1.11,0,2.21-0.24,3.32-0.63c1.03-0.4,1.98-1.03,2.69-1.82
	c0.79-0.87,1.42-1.82,1.82-2.92c0.47-1.26,0.71-2.61,0.71-3.95C106.63,266.21,106.39,264.95,105.99,263.68z"/>
<path class="st0" d="M144.08,272.85c-0.63,1.5-1.5,2.84-2.61,3.95c-1.03,1.03-2.29,1.9-3.71,2.45c-1.34,0.55-2.77,0.87-4.27,0.87
	c-1.98,0-3.95-0.47-5.61-1.5c-0.71-0.47-1.42-1.03-2.05-1.66c-0.55-0.63-1.11-1.26-1.58-1.98v12.09h-3.63v-31.61h3.56v4.9
	c0.47-0.71,1.03-1.42,1.66-2.05s1.26-1.19,2.05-1.74c0.79-0.47,1.58-0.87,2.53-1.19c1.03-0.32,2.05-0.47,3.08-0.47
	c2.92,0,5.77,1.19,7.9,3.32c1.11,1.11,2.05,2.45,2.61,3.95C145.27,265.66,145.27,269.45,144.08,272.85L144.08,272.85z
	 M140.69,263.68c-0.4-1.11-1.03-2.13-1.82-2.92c-0.79-0.79-1.66-1.42-2.69-1.9c-1.03-0.4-2.13-0.63-3.24-0.63
	c-1.11,0-2.21,0.24-3.24,0.71c-1.03,0.47-1.98,1.11-2.77,1.9c-0.87,0.87-1.5,1.82-1.98,2.92c-0.47,1.19-0.71,2.53-0.71,3.79
	c0,1.34,0.24,2.61,0.71,3.87c0.47,1.11,1.11,2.13,1.98,2.92c0.79,0.79,1.74,1.42,2.77,1.9c1.03,0.47,2.13,0.71,3.24,0.71
	c1.11,0,2.21-0.24,3.32-0.63c1.03-0.4,1.98-1.03,2.69-1.82c0.79-0.87,1.42-1.82,1.82-2.92c0.47-1.26,0.71-2.61,0.71-3.95
	C141.32,266.21,141.08,264.95,140.69,263.68L140.69,263.68z"/>
<path class="st0" d="M155.7,279.56v-34.06h3.56v34.06H155.7z"/>
<path class="st0" d="M183.12,280.43c-1.03,2.45-2.21,4.27-3.4,5.29c-1.26,1.03-2.92,1.58-4.58,1.5c-0.95,0-1.82-0.08-2.69-0.32
	c-0.87-0.24-1.66-0.55-2.45-0.87l1.19-2.84c0.55,0.32,1.11,0.55,1.74,0.71c0.63,0.16,1.34,0.24,2.05,0.24
	c1.03,0,1.98-0.32,2.77-0.95c0.95-1.03,1.74-2.21,2.21-3.56l-10.98-24.02h3.95l8.77,20.07l7.74-20.07h3.79L183.12,280.43z"/>
<path class="st0" d="M202.72,250.25v-3.95h4.11v3.95H202.72z M202.95,279.56v-24.1h3.56v24.1H202.95z"/>
<path class="st0" d="M222.24,279.56h-3.56v-24.1h3.56v4.19c0.79-1.34,1.9-2.45,3.16-3.32c1.5-0.95,3.32-1.42,5.06-1.34
	c1.34,0,2.69,0.24,3.87,0.71c1.11,0.47,2.05,1.11,2.92,1.98c0.79,0.87,1.42,1.9,1.82,3.08c0.4,1.26,0.63,2.61,0.63,3.95v14.94h-3.56
	V265.5c0.08-1.9-0.47-3.79-1.74-5.29c-1.26-1.34-3.08-2.05-4.98-1.98c-0.95,0-1.98,0.16-2.84,0.55c-0.87,0.32-1.66,0.87-2.29,1.5
	c-0.63,0.71-1.19,1.5-1.5,2.37c-0.4,0.95-0.55,2.05-0.55,3.08L222.24,279.56z"/>
<path class="st0" d="M273.2,280.51c-0.55,1.42-1.34,2.69-2.45,3.63c-1.11,1.03-2.45,1.74-3.87,2.21c-1.66,0.55-3.32,0.79-5.06,0.71
	c-1.98,0-3.87-0.24-5.77-0.87c-1.82-0.55-3.56-1.42-5.14-2.53l1.66-2.77c1.34,0.95,2.84,1.74,4.35,2.29
	c1.58,0.55,3.24,0.79,4.9,0.79c2.29,0.16,4.58-0.63,6.4-2.21c1.58-1.42,2.37-3.56,2.37-6.4v-2.84c-1.11,1.42-2.37,2.61-3.87,3.56
	c-1.66,1.03-3.64,1.58-5.61,1.5c-1.42,0-2.84-0.24-4.19-0.79c-1.34-0.47-2.61-1.26-3.63-2.21c-2.29-2.13-3.56-5.22-3.48-8.3
	c0-1.66,0.32-3.24,0.95-4.74c0.63-1.34,1.42-2.61,2.53-3.56c1.03-0.95,2.29-1.74,3.63-2.29c1.34-0.55,2.77-0.79,4.19-0.79
	c1.03,0,2.05,0.16,3.08,0.4c0.87,0.24,1.74,0.63,2.53,1.03c0.79,0.4,1.42,0.95,2.05,1.5c0.63,0.55,1.19,1.19,1.66,1.9v-4.35h3.56
	v19.99C274.07,277.12,273.76,278.85,273.2,280.51z M269.81,262.97c-0.47-0.95-1.19-1.9-1.98-2.61c-0.87-0.71-1.82-1.26-2.84-1.66
	c-1.03-0.4-2.21-0.55-3.32-0.55c-1.11,0-2.21,0.16-3.24,0.55c-1.03,0.32-1.9,0.95-2.69,1.66c-0.79,0.71-1.42,1.58-1.82,2.61
	c-0.47,1.11-0.63,2.21-0.63,3.4c-0.08,2.29,0.87,4.43,2.53,6.01c0.79,0.71,1.66,1.26,2.69,1.66c1.03,0.4,2.05,0.55,3.16,0.55
	s2.29-0.16,3.32-0.55c1.03-0.4,1.98-0.95,2.84-1.66c0.79-0.71,1.5-1.58,1.98-2.61C270.83,267.55,270.83,265.1,269.81,262.97
	L269.81,262.97z"/>
<path class="st0" d="M320.06,278.85c-1.74,0.95-3.71,1.42-5.69,1.34c-1.66,0-3.4-0.32-4.9-1.03c-3-1.26-5.29-3.71-6.48-6.72
	c-0.63-1.5-0.95-3.16-0.95-4.82s0.32-3.32,0.95-4.9c0.55-1.5,1.5-2.84,2.61-4.03c2.29-2.45,5.53-3.79,8.85-3.71
	c1.03,0,2.13,0.08,3.16,0.32c0.87,0.24,1.74,0.47,2.53,0.87c0.79,0.4,1.5,0.87,2.13,1.34c0.63,0.55,1.26,1.11,1.82,1.66l-2.37,2.53
	c-0.95-0.95-1.98-1.82-3.16-2.53c-1.26-0.71-2.69-1.11-4.19-1.11c-1.19,0-2.37,0.24-3.4,0.71c-1.03,0.47-1.98,1.19-2.77,1.98
	c-0.79,0.87-1.42,1.9-1.82,3c-0.47,1.19-0.63,2.37-0.63,3.63c0,1.26,0.24,2.53,0.71,3.64c0.4,1.11,1.03,2.13,1.9,3
	c0.79,0.87,1.74,1.5,2.77,1.98c1.11,0.47,2.29,0.71,3.56,0.71c1.42,0,2.84-0.32,4.11-1.03c1.19-0.71,2.29-1.58,3.24-2.53l2.29,2.13
	C323.07,276.8,321.64,277.91,320.06,278.85z"/>
<path class="st0" d="M337.45,279.56h-3.56v-24.1h3.56v6.32c0.4-0.95,0.95-1.9,1.66-2.77c0.63-0.79,1.42-1.58,2.21-2.13
	c0.87-0.63,1.74-1.11,2.77-1.42c1.03-0.32,2.13-0.47,3.24-0.4v3.87h-0.32c-1.26,0-2.53,0.24-3.71,0.71
	c-1.19,0.47-2.21,1.19-3.08,2.05c-0.95,1.03-1.58,2.21-2.05,3.48c-0.55,1.5-0.79,3.16-0.79,4.74v9.64H337.45z"/>
<path class="st0" d="M358.55,272.37c0.47,0.95,1.11,1.82,1.9,2.53c0.79,0.71,1.66,1.26,2.61,1.58c0.95,0.4,1.98,0.55,3,0.55
	c1.5,0,3-0.32,4.35-0.95c1.19-0.63,2.37-1.5,3.32-2.45l2.21,1.98c-1.19,1.34-2.61,2.45-4.11,3.32c-1.82,0.87-3.79,1.26-5.77,1.26
	c-1.58,0-3.16-0.32-4.66-0.87c-1.42-0.55-2.77-1.5-3.79-2.53c-1.11-1.11-1.98-2.45-2.61-3.95c-0.63-1.66-1.03-3.4-0.95-5.14
	c0-1.66,0.32-3.32,0.87-4.9c0.55-1.5,1.34-2.84,2.37-4.03c1.03-1.11,2.29-2.05,3.63-2.69c3-1.34,6.4-1.34,9.4,0
	c1.34,0.63,2.61,1.58,3.56,2.77c1.03,1.19,1.74,2.53,2.21,4.03c0.47,1.58,0.79,3.32,0.79,4.98v0.55c0,0.24,0,0.4-0.08,0.63h-19.04
	C357.76,270.08,358.07,271.27,358.55,272.37z M373.09,266.21c-0.08-1.11-0.32-2.13-0.71-3.16c-0.32-0.95-0.87-1.82-1.5-2.61
	c-0.63-0.71-1.42-1.34-2.29-1.82c-0.95-0.47-2.05-0.71-3.16-0.71c-1.03,0-1.98,0.24-2.92,0.63c-0.87,0.4-1.66,1.03-2.37,1.74
	c-0.71,0.79-1.26,1.66-1.66,2.61c-0.47,1.03-0.71,2.13-0.87,3.24L373.09,266.21z"/>
<path class="st0" d="M391.58,258.78c-1.19,0.32-2.29,0.79-3.4,1.26l-1.03-2.92c1.34-0.63,2.69-1.11,4.03-1.5
	c1.58-0.4,3.16-0.55,4.74-0.55c3.32,0,5.85,0.79,7.59,2.45s2.69,4.03,2.69,7.27v14.7h-3.48v-3.64c-0.95,1.19-2.05,2.13-3.4,2.92
	c-1.66,0.87-3.48,1.34-5.37,1.26c-1.11,0-2.21-0.16-3.32-0.47c-1.03-0.32-2.05-0.79-2.92-1.42c-0.87-0.63-1.58-1.42-2.05-2.37
	c-0.55-1.03-0.79-2.13-0.79-3.32c0-1.19,0.24-2.29,0.79-3.4c0.47-0.95,1.19-1.82,2.13-2.45c1.03-0.71,2.13-1.19,3.24-1.5
	c1.34-0.32,2.77-0.55,4.19-0.47c1.34,0,2.69,0.08,4.03,0.32c1.11,0.16,2.21,0.47,3.32,0.79v-0.87c0-2.21-0.63-3.79-1.9-4.9
	c-1.5-1.19-3.4-1.74-5.29-1.66C394.19,258.31,392.92,258.47,391.58,258.78z M390.47,268.74c-1.19,0.87-1.9,2.21-1.82,3.63
	c0,0.71,0.16,1.42,0.47,2.05c0.32,0.63,0.79,1.11,1.34,1.5c0.55,0.4,1.26,0.79,1.9,0.95c0.71,0.24,1.5,0.32,2.29,0.32
	c1.11,0,2.13-0.16,3.16-0.47c0.95-0.32,1.82-0.79,2.53-1.34s1.26-1.26,1.74-2.05c0.4-0.79,0.63-1.74,0.63-2.61v-2.37
	c-0.87-0.24-1.9-0.47-3.08-0.71c-1.34-0.24-2.61-0.32-3.95-0.32C393.87,267.24,392.05,267.71,390.47,268.74L390.47,268.74z"/>
<path class="st0" d="M422.16,272.77c0,1.5,0.4,2.53,1.11,3.16c0.87,0.63,1.9,0.95,2.92,0.87c1.19,0,2.45-0.24,3.48-0.87v3.08
	c-0.63,0.32-1.26,0.63-1.98,0.79c-0.79,0.16-1.58,0.24-2.37,0.24c-0.95,0-1.82-0.08-2.69-0.4c-0.79-0.24-1.58-0.63-2.13-1.19
	c-0.63-0.55-1.11-1.34-1.42-2.13c-0.4-1.03-0.55-2.05-0.55-3.16v-14.54h-3.32v-3.16h3.32v-7.27h3.63v7.27h7.67v3.16h-7.67V272.77z"
	/>
<path class="st0" d="M439.94,250.25v-3.95h4.11v3.95H439.94z M440.18,279.56v-24.1h3.56v24.1H440.18z"/>
<path class="st0" d="M473.68,255.46h3.87l-10.51,24.34h-3.16l-10.43-24.34h3.95l8.14,19.99L473.68,255.46z"/>
<path class="st0" d="M487.04,250.25v-3.95h4.11v3.95H487.04z M487.27,279.56v-24.1h3.56v24.1H487.27z"/>
<path class="st0" d="M507.82,272.77c0,1.5,0.4,2.53,1.11,3.16c0.87,0.63,1.9,0.95,2.92,0.87c1.19,0,2.45-0.24,3.48-0.87v3.08
	c-0.63,0.32-1.26,0.63-1.98,0.79c-0.79,0.16-1.58,0.24-2.37,0.24c-0.95,0-1.82-0.08-2.69-0.4c-0.79-0.24-1.58-0.63-2.21-1.19
	s-1.11-1.34-1.42-2.13c-0.4-1.03-0.55-2.05-0.55-3.16v-14.54h-3.4v-3.16h3.4v-7.27h3.56v7.27h7.67v3.16h-7.67L507.82,272.77z"/>
<path class="st0" d="M537.29,280.43c-1.03,2.45-2.13,4.27-3.4,5.29c-1.26,1.03-2.92,1.58-4.58,1.58c-0.95,0-1.82-0.08-2.69-0.32
	c-0.87-0.24-1.66-0.55-2.45-0.87l1.19-2.84c0.55,0.32,1.11,0.55,1.74,0.71c0.63,0.16,1.34,0.24,2.05,0.24
	c1.03,0,1.98-0.32,2.77-0.95c0.95-1.03,1.74-2.21,2.21-3.56l-10.98-24.02h3.95l8.77,20.07l7.74-20.07h3.79L537.29,280.43z"/>
<path class="st1" d="M141.32,21.32c11.22,8.77,16.91,20.7,16.91,35.8c0.08,5.29-0.71,10.51-2.29,15.57
	c-1.34,4.19-3.4,8.22-5.93,11.85c-2.45,3.4-5.37,6.4-8.69,8.85c-3.16,2.45-6.56,4.66-10.11,6.56c5.29,1.9,10.43,4.19,15.33,6.95
	c4.43,2.53,8.46,5.69,11.93,9.4c3.4,3.79,6.08,8.14,7.74,12.96c1.9,5.53,2.84,11.38,2.77,17.31c0,8.53-1.66,16.04-5.06,22.6
	c-3.4,6.56-8.3,12.17-14.3,16.52c-6.16,4.43-13.59,7.82-22.36,10.11c-9.4,2.37-19.12,3.48-28.84,3.4H10.14V8.21h85.5
	C114.85,8.21,130.1,12.55,141.32,21.32z M115.16,82.49c6.56-4.27,9.8-10.9,9.8-19.83c0-7.82-2.84-13.91-8.53-18.25
	c-5.69-4.27-13.99-6.48-24.89-6.4H43.41v50.97h45.67C99.91,88.97,108.6,86.83,115.16,82.49z M125.83,162.69
	c6.56-4.43,9.8-11.06,9.8-19.76c0-8.22-3.24-14.54-9.64-19.12c-6.4-4.58-16.28-6.8-29.47-6.8H43.49v52.39h55.47
	C110.26,169.41,119.27,167.2,125.83,162.69z"/>
<path class="st1" d="M264.04,199.12v-17.7c-5.22,6.08-11.62,11.06-18.81,14.7c-7.67,3.95-16.91,6.01-27.82,6.01
	c-6.64,0.08-13.28-0.95-19.68-2.84c-5.93-1.74-11.38-4.58-16.2-8.46c-4.66-3.79-8.53-8.53-11.14-13.91
	c-2.84-5.53-4.19-12.01-4.19-19.28v-0.55c0-7.82,1.42-14.62,4.35-20.47c2.84-5.69,6.95-10.67,12.17-14.46
	c5.61-4.03,11.85-6.95,18.57-8.61c7.59-1.98,15.49-2.92,23.31-2.84c7.43-0.08,14.86,0.47,22.2,1.66c5.93,1.03,11.85,2.53,17.54,4.35
	v-3.56c0-10.04-3.08-17.62-9.17-22.92c-6.08-5.29-14.86-7.9-26.31-7.9c-7.35-0.08-14.7,0.71-21.81,2.45
	c-6.64,1.74-13.04,3.87-19.36,6.56l-9.01-26.47c7.9-3.56,16.12-6.48,24.58-8.69c8.38-2.21,18.49-3.24,30.27-3.24
	c21.41,0,37.38,5.29,47.73,15.96c10.35,10.67,15.57,25.6,15.57,44.88v85.34H264.04z M264.83,138.04c-4.82-1.82-9.8-3.16-14.86-4.11
	c-6.01-1.11-12.09-1.66-18.17-1.66c-10.35,0-18.49,1.98-24.26,6.01c-5.85,4.03-8.69,9.72-8.69,17.15v0.55
	c0,6.95,2.69,12.17,8.06,15.8c5.37,3.63,11.93,5.45,19.76,5.45c5.14,0.08,10.19-0.71,15.09-2.21c4.35-1.34,8.46-3.4,12.17-6.16
	c3.4-2.53,6.08-5.77,8.06-9.56c1.98-3.87,2.92-8.14,2.84-12.41L264.83,138.04z"/>
<path class="st1" d="M407.46,176.52c-2.61,5.53-6.48,10.35-11.3,14.07c-5.06,3.87-10.9,6.72-17.07,8.46
	c-6.8,1.98-13.91,2.92-20.94,2.84c-10.75-0.08-21.34-1.9-31.53-5.45c-10.67-3.63-20.7-9.09-29.63-16.12l14.7-22.36
	c7.27,5.53,15.33,9.96,23.86,13.2c7.43,2.84,15.33,4.43,23.31,4.5c7.11,0,12.56-1.42,16.52-4.27c3.79-2.53,5.93-6.8,5.85-11.3v-0.55
	c0.08-2.61-0.87-5.14-2.61-7.11c-1.98-2.21-4.43-4.03-7.11-5.29c-3.32-1.66-6.8-3.08-10.35-4.11c-3.87-1.19-7.98-2.37-12.17-3.71
	c-5.29-1.66-10.59-3.48-15.96-5.45c-5.14-1.9-10.04-4.5-14.46-7.74c-4.27-3.16-7.82-7.11-10.51-11.7
	c-2.69-4.66-4.11-10.43-4.11-17.31v-0.55c-0.08-6.32,1.26-12.56,3.95-18.25c2.61-5.37,6.32-10.11,10.9-13.91
	c4.82-3.95,10.43-6.87,16.36-8.69c6.48-2.05,13.28-3.08,20.07-3c9.32,0.08,18.65,1.5,27.5,4.35c9.01,2.77,17.54,6.8,25.37,12.01
	l-13.12,23.47c-6.64-4.03-13.67-7.35-21.02-9.96c-6.32-2.29-12.96-3.56-19.6-3.63c-6.4,0-11.3,1.34-14.86,4.11
	c-3.56,2.69-5.29,6.16-5.29,10.35v0.55c0,2.53,0.95,4.9,2.77,6.64c2.13,2.13,4.58,3.87,7.19,5.22c3.32,1.66,6.8,3.16,10.35,4.35
	c3.87,1.34,7.98,2.69,12.09,3.95c5.29,1.66,10.51,3.56,15.8,5.69c5.06,2.05,9.88,4.82,14.3,8.06c4.19,3.16,7.82,7.11,10.51,11.62
	c2.77,4.58,4.11,10.11,4.11,16.59v0.55C411.57,164.19,410.23,170.83,407.46,176.52z"/>
<path class="st1" d="M547.41,199.12h-38.17l-43.38-62.19l-20.15,21.02v41.17h-33.27V0.07h33.27v118.85l59.74-63.85h39.98
	l-57.29,58.63L547.41,199.12z"/>
</svg>
