<?xml version="1.0" encoding="utf-8"?>
<!-- Generator: Adobe Illustrator 24.0.1, SVG Export Plug-In . SVG Version: 6.00 Build 0)  -->
<svg version="1.1" id="Layer_1" xmlns="http://www.w3.org/2000/svg" xmlns:xlink="http://www.w3.org/1999/xlink" x="0px" y="0px"
	 viewBox="0 0 841.9 595.3" style="enable-background:new 0 0 841.9 595.3;" xml:space="preserve">
<style type="text/css">
	.st0{fill:#FFFFFF;}
	.st1{fill:#FFE500;}
</style>
<title>Bask Logo</title>
<path class="st0" d="M160.5,471.3h-5l-4.8-10.9h-22.5l-4.9,10.9h-4.8l18.8-41.6h4.4L160.5,471.3z M139.4,435.2l-9.4,21.1h18.8
	L139.4,435.2z"/>
<path class="st0" d="M202.1,462.8c-0.8,1.9-1.9,3.6-3.3,5c-1.3,1.3-2.9,2.4-4.7,3.1c-1.7,0.7-3.5,1.1-5.4,1.1
	c-2.5,0-4.9-0.6-7.1-1.9c-0.9-0.6-1.8-1.3-2.6-2.1c-0.7-0.8-1.4-1.6-2-2.5v15.3h-4.6v-40h4.6v6.2c0.6-0.9,1.3-1.8,2.1-2.6
	c0.8-0.8,1.6-1.6,2.6-2.2c1-0.6,2-1.1,3.2-1.5c1.2-0.4,2.6-0.6,3.9-0.6c1.8,0,3.6,0.4,5.3,1.1c1.8,0.7,3.3,1.8,4.7,3.1
	c1.4,1.4,2.6,3.1,3.3,5C203.8,453.7,203.8,458.5,202.1,462.8L202.1,462.8z M197.9,451.2c-0.5-1.4-1.3-2.6-2.3-3.7
	c-1-1-2.1-1.8-3.4-2.4c-1.3-0.6-2.7-0.8-4.1-0.8c-1.4,0-2.8,0.3-4.1,0.9c-1.3,0.6-2.5,1.4-3.5,2.4c-1.1,1.1-1.9,2.3-2.5,3.7
	c-0.6,1.5-0.9,3.2-0.9,4.8c0,1.7,0.3,3.3,0.9,4.9c0.6,1.4,1.4,2.7,2.5,3.7c1,1,2.2,1.8,3.5,2.4c1.3,0.6,2.7,0.9,4.1,0.9
	c1.4,0,2.8-0.3,4.2-0.8c1.3-0.5,2.5-1.3,3.4-2.3c1-1.1,1.8-2.3,2.3-3.7c0.6-1.6,0.9-3.3,0.9-5C198.7,454.4,198.4,452.8,197.9,451.2z
	"/>
<path class="st0" d="M246.1,462.8c-0.8,1.9-1.9,3.6-3.3,5c-1.3,1.3-2.9,2.4-4.7,3.1c-1.7,0.7-3.5,1.1-5.4,1.1c-2.5,0-5-0.6-7.1-1.9
	c-0.9-0.6-1.8-1.3-2.6-2.1c-0.7-0.8-1.4-1.6-2-2.5v15.3h-4.6v-40h4.5v6.2c0.6-0.9,1.3-1.8,2.1-2.6c0.8-0.8,1.6-1.5,2.6-2.2
	c1-0.6,2-1.1,3.2-1.5c1.3-0.4,2.6-0.6,3.9-0.6c3.7,0,7.3,1.5,10,4.2c1.4,1.4,2.6,3.1,3.3,5C247.6,453.7,247.6,458.5,246.1,462.8
	L246.1,462.8z M241.8,451.2c-0.5-1.4-1.3-2.7-2.3-3.7c-1-1-2.1-1.8-3.4-2.4c-1.3-0.5-2.7-0.8-4.1-0.8c-1.4,0-2.8,0.3-4.1,0.9
	c-1.3,0.6-2.5,1.4-3.5,2.4c-1.1,1.1-1.9,2.3-2.5,3.7c-0.6,1.5-0.9,3.2-0.9,4.8c0,1.7,0.3,3.3,0.9,4.9c0.6,1.4,1.4,2.7,2.5,3.7
	c1,1,2.2,1.8,3.5,2.4c1.3,0.6,2.7,0.9,4.1,0.9c1.4,0,2.8-0.3,4.2-0.8c1.3-0.5,2.5-1.3,3.4-2.3c1-1.1,1.8-2.3,2.3-3.7
	c0.6-1.6,0.9-3.3,0.9-5C242.6,454.4,242.3,452.8,241.8,451.2L241.8,451.2z"/>
<path class="st0" d="M260.8,471.3v-43.1h4.5v43.1H260.8z"/>
<path class="st0" d="M295.5,472.4c-1.3,3.1-2.8,5.4-4.3,6.7c-1.6,1.3-3.7,2-5.8,1.9c-1.2,0-2.3-0.1-3.4-0.4
	c-1.1-0.3-2.1-0.7-3.1-1.1l1.5-3.6c0.7,0.4,1.4,0.7,2.2,0.9c0.8,0.2,1.7,0.3,2.6,0.3c1.3,0,2.5-0.4,3.5-1.2c1.2-1.3,2.2-2.8,2.8-4.5
	l-13.9-30.4h5l11.1,25.4l9.8-25.4h4.8L295.5,472.4z"/>
<path class="st0" d="M320.3,434.2v-5h5.2v5H320.3z M320.6,471.3v-30.5h4.5v30.5L320.6,471.3z"/>
<path class="st0" d="M345,471.3h-4.5v-30.5h4.5v5.3c1-1.7,2.4-3.1,4-4.2c1.9-1.2,4.2-1.8,6.4-1.7c1.7,0,3.4,0.3,4.9,0.9
	c1.4,0.6,2.6,1.4,3.7,2.5c1,1.1,1.8,2.4,2.3,3.9c0.5,1.6,0.8,3.3,0.8,5v18.9h-4.5v-17.9c0.1-2.4-0.6-4.8-2.2-6.7
	c-1.6-1.7-3.9-2.6-6.3-2.5c-1.2,0-2.5,0.2-3.6,0.7c-1.1,0.4-2.1,1.1-2.9,1.9c-0.8,0.9-1.5,1.9-1.9,3c-0.5,1.2-0.7,2.6-0.7,3.9
	L345,471.3z"/>
<path class="st0" d="M409.5,472.5c-0.7,1.8-1.7,3.4-3.1,4.6c-1.4,1.3-3.1,2.2-4.9,2.8c-2.1,0.7-4.2,1-6.4,0.9
	c-2.5,0-4.9-0.3-7.3-1.1c-2.3-0.7-4.5-1.8-6.5-3.2l2.1-3.5c1.7,1.2,3.6,2.2,5.5,2.9c2,0.7,4.1,1,6.2,1c2.9,0.2,5.8-0.8,8.1-2.8
	c2-1.8,3-4.5,3-8.1v-3.6c-1.4,1.8-3,3.3-4.9,4.5c-2.1,1.3-4.6,2-7.1,1.9c-1.8,0-3.6-0.3-5.3-1c-1.7-0.6-3.3-1.6-4.6-2.8
	c-2.9-2.7-4.5-6.6-4.4-10.5c0-2.1,0.4-4.1,1.2-6c0.8-1.7,1.8-3.3,3.2-4.5c1.3-1.2,2.9-2.2,4.6-2.9c1.7-0.7,3.5-1,5.3-1
	c1.3,0,2.6,0.2,3.9,0.5c1.1,0.3,2.2,0.8,3.2,1.3c1,0.5,1.8,1.2,2.6,1.9c0.8,0.7,1.5,1.5,2.1,2.4v-5.5h4.5V466
	C410.6,468.2,410.2,470.4,409.5,472.5z M405.2,450.3c-0.6-1.2-1.5-2.4-2.5-3.3c-1.1-0.9-2.3-1.6-3.6-2.1c-1.3-0.5-2.8-0.7-4.2-0.7
	c-1.4,0-2.8,0.2-4.1,0.7c-1.3,0.4-2.4,1.2-3.4,2.1c-1,0.9-1.8,2-2.3,3.3c-0.6,1.4-0.8,2.8-0.8,4.3c-0.1,2.9,1.1,5.6,3.2,7.6
	c1,0.9,2.1,1.6,3.4,2.1c1.3,0.5,2.6,0.7,4,0.7c1.4,0,2.9-0.2,4.2-0.7c1.3-0.5,2.5-1.2,3.6-2.1c1-0.9,1.9-2,2.5-3.3
	C406.5,456.1,406.5,453,405.2,450.3L405.2,450.3z"/>
<path class="st0" d="M468.8,470.4c-2.2,1.2-4.7,1.8-7.2,1.7c-2.1,0-4.3-0.4-6.2-1.3c-3.8-1.6-6.7-4.7-8.2-8.5
	c-0.8-1.9-1.2-4-1.2-6.1c0-2.1,0.4-4.2,1.2-6.2c0.7-1.9,1.9-3.6,3.3-5.1c2.9-3.1,7-4.8,11.2-4.7c1.3,0,2.7,0.1,4,0.4
	c1.1,0.3,2.2,0.6,3.2,1.1c1,0.5,1.9,1.1,2.7,1.7c0.8,0.7,1.6,1.4,2.3,2.1l-3,3.2c-1.2-1.2-2.5-2.3-4-3.2c-1.6-0.9-3.4-1.4-5.3-1.4
	c-1.5,0-3,0.3-4.3,0.9c-1.3,0.6-2.5,1.5-3.5,2.5c-1,1.1-1.8,2.4-2.3,3.8c-0.6,1.5-0.8,3-0.8,4.6c0,1.6,0.3,3.2,0.9,4.6
	c0.5,1.4,1.3,2.7,2.4,3.8c1,1.1,2.2,1.9,3.5,2.5c1.4,0.6,2.9,0.9,4.5,0.9c1.8,0,3.6-0.4,5.2-1.3c1.5-0.9,2.9-2,4.1-3.2l2.9,2.7
	C472.6,467.8,470.8,469.2,468.8,470.4z"/>
<path class="st0" d="M490.8,471.3h-4.5v-30.5h4.5v8c0.5-1.2,1.2-2.4,2.1-3.5c0.8-1,1.8-2,2.8-2.7c1.1-0.8,2.2-1.4,3.5-1.8
	c1.3-0.4,2.7-0.6,4.1-0.5v4.9h-0.4c-1.6,0-3.2,0.3-4.7,0.9c-1.5,0.6-2.8,1.5-3.9,2.6c-1.2,1.3-2,2.8-2.6,4.4c-0.7,1.9-1,4-1,6V471.3
	z"/>
<path class="st0" d="M517.5,462.2c0.6,1.2,1.4,2.3,2.4,3.2c1,0.9,2.1,1.6,3.3,2c1.2,0.5,2.5,0.7,3.8,0.7c1.9,0,3.8-0.4,5.5-1.2
	c1.5-0.8,3-1.9,4.2-3.1l2.8,2.5c-1.5,1.7-3.3,3.1-5.2,4.2c-2.3,1.1-4.8,1.6-7.3,1.6c-2,0-4-0.4-5.9-1.1c-1.8-0.7-3.5-1.9-4.8-3.2
	c-1.4-1.4-2.5-3.1-3.3-5c-0.8-2.1-1.3-4.3-1.2-6.5c0-2.1,0.4-4.2,1.1-6.2c0.7-1.9,1.7-3.6,3-5.1c1.3-1.4,2.9-2.6,4.6-3.4
	c3.8-1.7,8.1-1.7,11.9,0c1.7,0.8,3.3,2,4.5,3.5c1.3,1.5,2.2,3.2,2.8,5.1c0.6,2,1,4.2,1,6.3v0.7c0,0.3,0,0.5-0.1,0.8h-24.1
	C516.5,459.3,516.9,460.8,517.5,462.2z M535.9,454.4c-0.1-1.4-0.4-2.7-0.9-4c-0.4-1.2-1.1-2.3-1.9-3.3c-0.8-0.9-1.8-1.7-2.9-2.3
	c-1.2-0.6-2.6-0.9-4-0.9c-1.3,0-2.5,0.3-3.7,0.8c-1.1,0.5-2.1,1.3-3,2.2c-0.9,1-1.6,2.1-2.1,3.3c-0.6,1.3-0.9,2.7-1.1,4.1
	L535.9,454.4z"/>
<path class="st0" d="M559.3,445c-1.5,0.4-2.9,1-4.3,1.6l-1.3-3.7c1.7-0.8,3.4-1.4,5.1-1.9c2-0.5,4-0.7,6-0.7c4.2,0,7.4,1,9.6,3.1
	s3.4,5.1,3.4,9.2v18.6h-4.4v-4.6c-1.2,1.5-2.6,2.7-4.3,3.7c-2.1,1.1-4.4,1.7-6.8,1.6c-1.4,0-2.8-0.2-4.2-0.6c-1.3-0.4-2.6-1-3.7-1.8
	c-1.1-0.8-2-1.8-2.6-3c-0.7-1.3-1-2.7-1-4.2c0-1.5,0.3-2.9,1-4.3c0.6-1.2,1.5-2.3,2.7-3.1c1.3-0.9,2.7-1.5,4.1-1.9
	c1.7-0.4,3.5-0.7,5.3-0.6c1.7,0,3.4,0.1,5.1,0.4c1.4,0.2,2.8,0.6,4.2,1v-1.1c0-2.8-0.8-4.8-2.4-6.2c-1.9-1.5-4.3-2.2-6.7-2.1
	C562.6,444.4,561,444.6,559.3,445z M557.9,457.6c-1.5,1.1-2.4,2.8-2.3,4.6c0,0.9,0.2,1.8,0.6,2.6c0.4,0.8,1,1.4,1.7,1.9
	c0.7,0.5,1.6,1,2.4,1.2c0.9,0.3,1.9,0.4,2.9,0.4c1.4,0,2.7-0.2,4-0.6c1.2-0.4,2.3-1,3.2-1.7c0.9-0.7,1.6-1.6,2.2-2.6
	c0.5-1,0.8-2.2,0.8-3.3v-3c-1.1-0.3-2.4-0.6-3.9-0.9c-1.7-0.3-3.3-0.4-5-0.4C562.2,455.7,559.9,456.3,557.9,457.6L557.9,457.6z"/>
<path class="st0" d="M598,462.7c0,1.9,0.5,3.2,1.4,4c1.1,0.8,2.4,1.2,3.7,1.1c1.5,0,3.1-0.3,4.4-1.1v3.9c-0.8,0.4-1.6,0.8-2.5,1
	c-1,0.2-2,0.3-3,0.3c-1.2,0-2.3-0.1-3.4-0.5c-1-0.3-2-0.8-2.7-1.5c-0.8-0.7-1.4-1.7-1.8-2.7c-0.5-1.3-0.7-2.6-0.7-4v-18.4h-4.2v-4
	h4.2v-9.2h4.6v9.2h9.7v4H598V462.7z"/>
<path class="st0" d="M620.5,434.2v-5h5.2v5H620.5z M620.8,471.3v-30.5h4.5v30.5L620.8,471.3z"/>
<path class="st0" d="M663.2,440.8h4.9l-13.3,30.8h-4l-13.2-30.8h5l10.3,25.3L663.2,440.8z"/>
<path class="st0" d="M680.1,434.2v-5h5.2v5H680.1z M680.4,471.3v-30.5h4.5v30.5L680.4,471.3z"/>
<path class="st0" d="M706.4,462.7c0,1.9,0.5,3.2,1.4,4c1.1,0.8,2.4,1.2,3.7,1.1c1.5,0,3.1-0.3,4.4-1.1v3.9c-0.8,0.4-1.6,0.8-2.5,1
	c-1,0.2-2,0.3-3,0.3c-1.2,0-2.3-0.1-3.4-0.5c-1-0.3-2-0.8-2.8-1.5c-0.8-0.7-1.4-1.7-1.8-2.7c-0.5-1.3-0.7-2.6-0.7-4v-18.4h-4.3v-4
	h4.3v-9.2h4.5v9.2h9.7v4h-9.7L706.4,462.7z"/>
<path class="st0" d="M743.7,472.4c-1.3,3.1-2.7,5.4-4.3,6.7c-1.6,1.3-3.7,2-5.8,2c-1.2,0-2.3-0.1-3.4-0.4c-1.1-0.3-2.1-0.7-3.1-1.1
	l1.5-3.6c0.7,0.4,1.4,0.7,2.2,0.9c0.8,0.2,1.7,0.3,2.6,0.3c1.3,0,2.5-0.4,3.5-1.2c1.2-1.3,2.2-2.8,2.8-4.5l-13.9-30.4h5l11.1,25.4
	l9.8-25.4h4.8L743.7,472.4z"/>
<path class="st1" d="M242.6,144.5c14.2,11.1,21.4,26.2,21.4,45.3c0.1,6.7-0.9,13.3-2.9,19.7c-1.7,5.3-4.3,10.4-7.5,15
	c-3.1,4.3-6.8,8.1-11,11.2c-4,3.1-8.3,5.9-12.8,8.3c6.7,2.4,13.2,5.3,19.4,8.8c5.6,3.2,10.7,7.2,15.1,11.9
	c4.3,4.8,7.7,10.3,9.8,16.4c2.4,7,3.6,14.4,3.5,21.9c0,10.8-2.1,20.3-6.4,28.6c-4.3,8.3-10.5,15.4-18.1,20.9
	c-7.8,5.6-17.2,9.9-28.3,12.8c-11.9,3-24.2,4.4-36.5,4.3H76.6V127.9h108.2C209.1,127.9,228.4,133.4,242.6,144.5z M209.5,221.9
	c8.3-5.4,12.4-13.8,12.4-25.1c0-9.9-3.6-17.6-10.8-23.1c-7.2-5.4-17.7-8.2-31.5-8.1h-60.9v64.5h57.8
	C190.2,230.1,201.2,227.4,209.5,221.9z M223,323.4c8.3-5.6,12.4-14,12.4-25c0-10.4-4.1-18.4-12.2-24.2s-20.6-8.6-37.3-8.6h-67.1
	v66.3h70.2C203.3,331.9,214.7,329.1,223,323.4z"/>
<path class="st1" d="M397.9,369.5v-22.4c-6.6,7.7-14.7,14-23.8,18.6c-9.7,5-21.4,7.6-35.2,7.6c-8.4,0.1-16.8-1.2-24.9-3.6
	c-7.5-2.2-14.4-5.8-20.5-10.7c-5.9-4.8-10.8-10.8-14.1-17.6c-3.6-7-5.3-15.2-5.3-24.4v-0.7c0-9.9,1.8-18.5,5.5-25.9
	c3.6-7.2,8.8-13.5,15.4-18.3c7.1-5.1,15-8.8,23.5-10.9c9.6-2.5,19.6-3.7,29.5-3.6c9.4-0.1,18.8,0.6,28.1,2.1
	c7.5,1.3,15,3.2,22.2,5.5v-4.5c0-12.7-3.9-22.3-11.6-29c-7.7-6.7-18.8-10-33.3-10c-9.3-0.1-18.6,0.9-27.6,3.1
	c-8.4,2.2-16.5,4.9-24.5,8.3l-11.4-33.5c10-4.5,20.4-8.2,31.1-11c10.6-2.8,23.4-4.1,38.3-4.1c27.1,0,47.3,6.7,60.4,20.2
	s19.7,32.4,19.7,56.8v108L397.9,369.5z M398.9,292.2c-6.1-2.3-12.4-4-18.8-5.2c-7.6-1.4-15.3-2.1-23-2.1c-13.1,0-23.4,2.5-30.7,7.6
	c-7.4,5.1-11,12.3-11,21.7v0.7c0,8.8,3.4,15.4,10.2,20c6.8,4.6,15.1,6.9,25,6.9c6.5,0.1,12.9-0.9,19.1-2.8
	c5.5-1.7,10.7-4.3,15.4-7.8c4.3-3.2,7.7-7.3,10.2-12.1c2.5-4.9,3.7-10.3,3.6-15.7L398.9,292.2z"/>
<path class="st1" d="M579.4,340.9c-3.3,7-8.2,13.1-14.3,17.8c-6.4,4.9-13.8,8.5-21.6,10.7c-8.6,2.5-17.6,3.7-26.5,3.6
	c-13.6-0.1-27-2.4-39.9-6.9c-13.5-4.6-26.2-11.5-37.5-20.4l18.6-28.3c9.2,7,19.4,12.6,30.2,16.7c9.4,3.6,19.4,5.6,29.5,5.7
	c9,0,15.9-1.8,20.9-5.4c4.8-3.2,7.5-8.6,7.4-14.3v-0.7c0.1-3.3-1.1-6.5-3.3-9c-2.5-2.8-5.6-5.1-9-6.7c-4.2-2.1-8.6-3.9-13.1-5.2
	c-4.9-1.5-10.1-3-15.4-4.7c-6.7-2.1-13.4-4.4-20.2-6.9c-6.5-2.4-12.7-5.7-18.3-9.8c-5.4-4-9.9-9-13.3-14.8
	c-3.4-5.9-5.2-13.2-5.2-21.9v-0.7c-0.1-8,1.6-15.9,5-23.1c3.3-6.8,8-12.8,13.8-17.6c6.1-5,13.2-8.7,20.7-11
	c8.2-2.6,16.8-3.9,25.4-3.8c11.8,0.1,23.6,1.9,34.8,5.5c11.4,3.5,22.2,8.6,32.1,15.2l-16.6,29.7c-8.4-5.1-17.3-9.3-26.6-12.6
	c-8-2.9-16.4-4.5-24.8-4.6c-8.1,0-14.3,1.7-18.8,5.2c-4.5,3.4-6.7,7.8-6.7,13.1v0.7c0,3.2,1.2,6.2,3.5,8.4c2.7,2.7,5.8,4.9,9.1,6.6
	c4.2,2.1,8.6,4,13.1,5.5c4.9,1.7,10.1,3.4,15.3,5c6.7,2.1,13.3,4.5,20,7.2c6.4,2.6,12.5,6.1,18.1,10.2c5.3,4,9.9,9,13.3,14.7
	c3.5,5.8,5.2,12.8,5.2,21v0.7C584.6,325.3,582.9,333.7,579.4,340.9z"/>
<path class="st1" d="M756.5,369.5h-48.3l-54.9-78.7l-25.5,26.6v52.1h-42.1V117.6h42.1V268l75.6-80.8H754l-72.5,74.2L756.5,369.5z"/>
</svg>
