<?xml version="1.0" encoding="utf-8"?>
<!-- Generator: Adobe Illustrator 24.0.2, SVG Export Plug-In . SVG Version: 6.00 Build 0)  -->
<svg version="1.1" id="a" xmlns="http://www.w3.org/2000/svg" xmlns:xlink="http://www.w3.org/1999/xlink" x="0px" y="0px"
	 viewBox="0 0 660 272.6" style="enable-background:new 0 0 760 272.6;" xml:space="preserve">
<style type="text/css">
	.st0{fill:#FFFFFF;}
	.st1{fill:#FFE600;}
	.st2{font-family:'ArialMT';}
	.st3{font-size:15.5157px;}
</style>
<g id="_x32_ZNiyh_00000017500793828248976170000017890431525539639222_">
	<g>
		<path class="st0" d="M4.4,76.8c-0.8-7.7-0.8-15.4,0-23.1c1.8-11.6,7.1-21.6,15.2-30C33.6,9.1,51.1,3.3,71.1,4.8
			c15.3,1.1,28.7,7,39.4,17.9c14.8,14.9,19.9,33.3,15.9,53.6c-4.9,24.8-20.3,41.1-44.9,47.1c-25.6,6.3-48.2-0.2-65.6-20.8
			C9.7,95.1,5.8,86.5,4.4,76.8z M100.7,64.8c-0.1-2.4-0.3-5.3-0.8-8.1C95,31.5,64.9,19.6,44.4,35c-11.1,8.3-15,20-14.2,33.6
			c1.4,22.3,23.1,37.9,44.6,32C90.4,96.3,100.6,82.5,100.7,64.8z"/>
		<path class="st0" d="M326.3,168.7c2.5-2.7,4.5-5,6.8-6.9c12.3-9.6,25.4-9.2,38.8-3.1c10.3,4.7,16.9,13.3,20.3,23.9
			c4.8,14.8,4.3,29.5-3,43.5c-9.2,17.9-31,26.2-49,18.6c-5.3-2.2-9.4-6-13.4-9.9c-0.9,0.9-0.5,1.8-0.5,2.7c0,10.8-0.1,21.5,0,32.3
			c0,2.2-0.6,2.8-2.8,2.8c-6.7-0.1-13.5-0.1-20.2,0c-1.6,0-2.5-0.2-2.5-2.2c0.1-37.3,0.1-74.6,0-111.9c0-1.7,0.5-2.3,2.2-2.2
			c7,0.1,14,0.1,21,0c1.7,0,2.3,0.4,2.3,2.2C326.2,161.6,326.3,164.7,326.3,168.7z M326,201.3c-0.1,2.8,0.3,5.8,1.3,8.8
			c2.9,9.3,10.4,15.5,19.2,16c9.1,0.5,17.3-4.6,20.9-13.5c3.5-8.5,3.3-17.1-1.1-25.2c-3.9-7.2-10-11.2-18.3-11.3
			c-8.4-0.1-14.4,3.9-18.5,11C327,191.3,325.9,196,326,201.3z"/>
		<path class="st0" d="M8.3,187.3c0-18.5,0.1-37-0.1-55.6c0-2.4,0.7-2.9,2.9-2.9c15.4,0.1,30.9,0,46.3,0.1c8.3,0,16.2,1.6,23.5,5.5
			c11.8,6.3,18.2,16.4,19.6,29.5c1.6,14.8-2.2,27.7-14.4,37.1c-7.6,5.9-16.6,8.5-26,9.3c-7.8,0.7-15.7,0.4-23.6,0.3
			c-2.2,0-2.6,0.6-2.6,2.7c0.1,9.9,0,19.8,0.1,29.8c0,2-0.3,2.8-2.5,2.7c-6.9-0.2-13.9-0.1-20.8,0c-2.2,0.1-2.6-0.7-2.6-2.7
			C8.4,224.5,8.3,205.9,8.3,187.3z M34.1,169.7c0,5.3,0,10.7,0,16c0,1.1-0.2,2.2,1.6,2.2c7.8-0.3,15.7,0.5,23.5-0.5
			c9.3-1.2,15.6-8.3,15.7-17.5c0-9.8-5.8-16.1-15.8-17.4c-7.8-1-15.7-0.2-23.5-0.5c-1.6-0.1-1.5,1-1.5,2
			C34.1,159.2,34.1,164.5,34.1,169.7z"/>
		<path class="st0" d="M243.5,154.6c22.7,0,40.8,12.8,47,32.5c8.3,26.5-8.6,54.8-36,59.6c-19,3.4-35.7-1.1-48.5-16.2
			C185,205.8,197,166.4,228,157C233.4,155.4,238.8,154.5,243.5,154.6z M267.4,201.3c0-15.2-11.9-26.4-26.8-24.8
			c-10.4,1.1-18.2,8.9-19.8,21.1c-2.2,16.9,11.2,31.4,29.1,27.7C260.4,223.1,267.5,213.4,267.4,201.3z"/>
		<path class="st0" d="M159.5,209.8c-9.6,0-19.3,0-28.9,0c-1.9,0-2.4,0.3-1.8,2.3c2.9,9.2,9.5,14.4,19.1,15.1
			c8.5,0.6,15.9-1.9,22.2-7.5c1.5-1.4,2.4-1.3,3.8,0.1c3.6,3.4,7.4,6.6,11.1,9.9c1.2,1,1.4,1.6,0.3,2.9
			c-7.9,8.6-17.5,13.7-29.2,14.9c-11.7,1.1-22.8-0.6-32.8-7.1c-13-8.5-19.5-20.9-20.1-36.2c-0.7-17.2,5-31.5,19.2-41.9
			c18.9-13.8,57.5-11.6,66.7,25c1.7,6.7,2.1,13.4,1.8,20.3c-0.1,1.8-0.6,2.3-2.4,2.3C178.8,209.8,169.2,209.8,159.5,209.8
			C159.5,209.8,159.5,209.8,159.5,209.8z M147,194c4.7,0,9.4,0,14,0c5.7,0,5.7,0,4-5.5c-3.7-11.6-15.1-16.9-25.9-11.8
			c-6.3,3-9,8.6-10.7,15c-0.5,1.8-0.3,2.4,1.8,2.4C135.8,193.9,141.4,194,147,194z"/>
		<path class="st0" d="M526.5,190.7c1,6.4,0.2,12.8,0.5,19.1c-19.6,0-39.3,0-58.9,0c-3.2,0-3.2,0-2.2,3c3.9,11.1,14,16.5,26.5,14.2
			c5.6-1,10.4-3.6,14.6-7.3c1.5-1.3,2.3-1.1,3.6,0.1c3.7,3.4,7.5,6.8,11.3,10c1.1,0.9,1.2,1.6,0.2,2.7c-7.8,8.7-17.5,13.8-29.2,15
			c-9.5,1-18.7,0-27.4-4.1c-13.5-6.3-21.7-16.9-24.6-31.4c-2.8-13.9-0.8-27.1,7.4-38.8c9.6-13.7,23.1-19.4,39.7-18.5
			C508.8,155.9,523.5,171.2,526.5,190.7z M483.9,194c4.8,0,9.5,0,14.3,0c5.4,0,5.4,0,3.7-5.2c-3.7-11.9-15-17.2-25.9-12.1
			c-6.3,3-9,8.7-10.7,15c-0.5,1.8-0.3,2.4,1.8,2.4C472.6,193.9,478.2,194,483.9,194z"/>
		<path class="st0" d="M193.8,110.9c-2.8,3-4.8,5.5-7.4,7.5c-10,7.9-21.2,8.6-32.5,4c-10.9-4.5-15.5-13.9-16.4-25.1
			c-1-13-0.3-26-0.4-39c-0.1-7.3,0.1-14.6-0.1-21.9c0-2.2,0.7-2.6,2.7-2.6c6.7,0.1,13.5,0.1,20.2,0c2.1,0,2.7,0.5,2.7,2.7
			c-0.1,15.6,0,31.2-0.1,46.8c0,3.8,0.3,7.5,2.1,10.9c2.6,5.3,7.9,8.1,14.4,7.6c6.3-0.5,11-3.3,13.4-9.4c1.2-3.1,1.4-6.4,1.4-9.7
			c0-15.3,0.1-30.7-0.1-46c0-2.4,0.7-3,3-2.9c6.7,0.1,13.5,0.1,20.2,0c1.8,0,2.4,0.4,2.4,2.3c-0.1,28.3-0.1,56.7,0,85
			c0,1.7-0.5,2.2-2.2,2.2c-7-0.1-14-0.1-21,0c-2,0-2.4-0.7-2.3-2.4C193.9,118,193.8,114.9,193.8,110.9z"/>
		<path class="st0" d="M404.7,184.4c0-19.5,0-38.9-0.1-58.4c0-2.3,0.6-2.8,2.8-2.7c6.7,0.1,13.5,0.2,20.2,0c2.3-0.1,3,0.4,2.9,2.9
			c-0.1,32.7-0.1,65.5-0.1,98.2c0,6.4-0.1,12.7,0,19.1c0,1.9-0.6,2.3-2.4,2.3c-6.9-0.1-13.9-0.1-20.8,0c-2.1,0-2.8-0.4-2.8-2.7
			C404.7,223.5,404.7,203.9,404.7,184.4z"/>
		<path class="st0" d="M257.5,50.3c2.6-3.8,5-7.7,8.2-11c5.1-5.2,11.5-7.1,18.6-7.1c1.3,0,1.9,0.4,1.8,1.8c0,7.7-0.1,15.3,0,23
			c0,1.6-0.7,1.8-2,1.8c-4.2,0-8.2,0.7-12,2.4c-8.5,3.8-12.4,10.9-13.9,19.7c-0.6,3.2-0.7,6.5-0.7,9.8c0,10.1,0,20.2,0,30.3
			c0,1.7-0.3,2.5-2.3,2.4c-7-0.1-14-0.1-21,0c-2,0-2.3-0.8-2.3-2.5c0-28.2,0-56.5,0-84.7c0-1.9,0.6-2.4,2.4-2.3
			c6.9,0.1,13.8,0.1,20.8,0c2.1,0,2.5,0.8,2.4,2.6C257.4,41.1,257.5,45.7,257.5,50.3z"/>
	</g>
</g>
<!-- <text transform="matrix(1 0 0 1 298.2998 42.661)" class="st1 st2 st3">We are the engaging disruptors.</text>
<text transform="matrix(1 0 0 1 298.2998 61.281)" class="st1 st2 st3">The team that does things differently.</text>
<text transform="matrix(1 0 0 1 298.2998 79.901)" class="st1 st2 st3">Think of us as individuals on our  own journeys</text>
<text transform="matrix(1 0 0 1 298.2998 98.521)" class="st1 st2 st3">sharing the same train compartment for the moment.</text>
<text transform="matrix(1 0 0 1 298.2998 117.141)" class="st1 st2 st3">While we are here together, we are trying to shake, rattle and roll.</text> -->
</svg>
