<?xml version="1.0" encoding="utf-8"?>
<!-- Generator: Adobe Illustrator 24.0.2, SVG Export Plug-In . SVG Version: 6.00 Build 0)  -->
<svg version="1.1" id="Layer_1" xmlns="http://www.w3.org/2000/svg" xmlns:xlink="http://www.w3.org/1999/xlink" x="0px" y="0px"
	 viewBox="0 0 1449.4 920.8" style="enable-background:new 0 0 1449.4 920.8;" xml:space="preserve">
<style type="text/css">
	.st0{clip-path:url(#SVGID_2_);}
	.st1{fill:#FFE500;}
	.st2{fill:#FFE97D;}
</style>
<title>Swirl</title>
<g>
	<defs>
		<rect id="SVGID_1_" x="-0.2" width="1449.6" height="920.8"/>
	</defs>
	<clipPath id="SVGID_2_">
		<use xlink:href="#SVGID_1_"  style="overflow:visible;"/>
	</clipPath>
	<g class="st0">
		<rect x="-0.2" y="-2" class="st1" width="1450.6" height="920.8"/>
		<g>
			<path class="st2" d="M608.4-1.2h212.5c32.5,25.1,69.1,40.1,109.2,43.3c39.3,3.1,78.8,3.6,118.3,5.4c35.7,1.6,67.4,14.3,94.9,38.6
				c38.6,34.1,60.3,79.5,72.9,129c14,54.7,24.5,110.4,36.2,165.8c14,67.4,29.3,134.7,40.9,202.6c10.1,58-7.4,107.4-54.1,142.7
				c-15.8,12-32.3,22.8-49.6,32.3c-41.1,22.3-83.5,42.3-124.2,65.5c-31,17.6-63.3,30-97.2,40.2c-60,17.9-119.3,38.3-179,57.7H674.3
				c-1.3-0.9-2.5-2.1-3.9-2.5c-65.4-17.7-119.8-55-165.7-105.6C391.4,688.9,348.1,537.6,355.1,368.1c1.6-38.4,10.1-75,30-108.1
				s45.8-61.2,74.1-86.2C517,122.8,556.3,55,608.4-1.2z M733.9,99.4c-16.3-0.7-46.5,5.2-74.1,21.6
				c-62.3,37.2-122.8,77.5-178.3,125.2c-49,42.1-73.5,96.3-71.3,163.7c1.4,41.6,6.9,82.4,17.2,122.5
				c24.5,94.7,65.4,179.3,138.3,243.5c47.6,41.9,102.5,66.7,165.2,59.6c96.7-10.9,189-38.3,271.7-94.9c12.6-8.6,25.1-17.8,38.7-24.4
				c38.9-19.1,78.2-37.5,117.8-55.3c54.7-24.8,76.1-62.9,70.7-129.9c-2.2-26.3-5.9-52.5-11-78.4c-12.1-62.2-23.6-124.8-46-184.1
				c-34.3-91-95.1-145.9-191-152.3C904.3,111,826.7,105.7,733.9,99.4z"/>
			<path class="st2" d="M364-1.2h119.7C441.1,56,399.1,113.6,355.9,170.3c-33.7,44.3-57.8,92.8-65,149.4
				c-6.9,54.6-12.5,109.3-20.3,163.8c-9.3,64.7,5.1,123.4,36.2,179c54.7,97.9,116.9,189.3,203.7,259.3h-127c-1.1-1.8-2.3-3.4-3.6-5
				C307.9,842.4,250,756.2,192.2,670c-42.8-63.9-51.9-133.8-29.9-208.4c19.9-67.6,39.6-135.2,58.5-203
				c12.4-44.3,31.5-86.2,56.5-124.1C304.6,92.6,332,50.7,359.2,8.8C361.2,5.6,362.4,2.1,364-1.2z"/>
			<path class="st2" d="M259-1.2c-1.6,3.8-2.7,7.9-4.7,11.4c-15.4,27.1-30.5,54.4-46.8,81C169,154,146,223.5,125.4,294.2
				c-15.8,54.2-32.8,108-46.8,162.7c-22.1,85.9-6.8,165.9,41.4,238.6c50,75.7,100.9,150.8,151.3,226.2H153.9
				c-6.5-13.7-14.2-27-19.3-41.3c-21-58.5-48.7-113.3-80.6-166C34.1,681.7,17.4,647,8.4,609c-3.2-13.6-5.5-27.4-8.3-41.1v-66.7
				c1.2-7.5,2-15.1,3.6-22.5c16.8-75.9,32.6-152,51-227.4c20.2-82.9,57.7-158.1,97.8-232c3.6-6.5,5.9-13.8,8.8-20.7L259-1.2z"/>
			<path class="st2" d="M1165.3,921.7c38.3-34.3,77-68.3,114.9-103.3c14.9-13.8,28.3-29.5,41.7-44.9
				c42.6-48.7,54.6-104.6,37.5-168.5s-35-127.9-47.8-192.9c-14.2-72.1-23.4-145.3-34.1-218.2c-10.9-75.2-42-138.3-98.4-186.9
				c-3.1-2.7-6-5.6-8.9-8.4h102.6c0.3,1.2,0.2,2.7,0.8,3.6c44.1,66.2,61,142.2,72.7,220.3c11.9,79.1,24.3,158.2,37.4,237.1
				c9.6,58.8,31.9,113.4,51.5,168.9c6.5,18.4,10.9,37.4,13.4,56.8c4.9,40.6-10.8,75.5-32.9,107c-30.5,43.7-62.6,86.1-94,129.1
				L1165.3,921.7z"/>
			<path class="st2" d="M68.4-1.2C51.5,35.6,34.5,72.4,17.8,109.4C11.4,123.5,6,138.2,0,152.6V-1.2H68.4z"/>
			<path class="st2" d="M0,767.9c12.9,26.2,18.9,54.3,16.7,83.5c-1.6,23.6-6.2,46.9-9.5,70.3c-6.1,1.3-7.5-1.3-7.5-7.7
				C0.1,865.3,0,816.6,0,767.9z"/>
			<path class="st2" d="M889,165.8c31,4.4,62.3,6.7,92.9,13.6c48,10.7,87.1,38.1,115,80.7c46.2,70.5,67.5,149,63.6,234.5
				c-1.3,28.6-14.9,51-38.3,66.3c-6.2,4.1-12.5,8.2-19.2,11.2c-50.3,22.2-95.6,53-138.5,88C896,715.9,816.8,741.8,731.9,750
				c-69.1,6.7-126-21.2-171.9-74c-60.6-69.8-92-153.1-97.4-247c-3.3-58,19.7-104.4,61.2-141.5c42.1-37.5,90.7-63.1,141.9-83.7
				C737.5,174.9,812.7,168.3,889,165.8z M517,448.3c4.5,65.2,31.6,128.7,85,178.6c34.3,32.1,75.4,47.3,121.1,45.5
				c52.9-2.1,103.6-15.3,147-48.3c36.5-27.8,70.5-59.1,105.3-89.3c21.3-18.5,42.5-37.2,62.9-56.8c24.3-23.4,34.2-52.8,32.3-87.5
				c-4.2-76.2-58.9-144.6-132.4-163.4c-51.1-13-102.6-10.9-154-2.6c-70.8,11.5-137.3,35.6-195.7,80.3
				C545.2,337.9,516.7,380.2,517,448.3z"/>
			<path class="st2" d="M833.1,265.6c27.2,1.2,53.8,4.5,78.7,16.5c50.6,24.4,67.8,74.8,39,124.7c-15.9,27.5-36.4,52.3-56.9,76.5
				c-22.7,26.7-46,53.4-72.1,76.1c-45.9,39.8-98.2,52.2-154.9,27.1c-75.6-33.5-128.1-152-41.5-238.1c42.1-41.8,93.8-63.6,149.8-75
				C794.2,269.4,813.8,268.1,833.1,265.6z M806.8,326.9c-47.4-0.1-95.3,23.2-120.5,59.1c-9.4,13.3-16.2,28.4-20.2,44.4
				c-10.7,45.7,21.1,85.7,62.3,77.8c15.1-2.9,31.9-11.3,42.4-22.7c24.9-27.3,47.3-57.2,68.9-87.4c10.2-14.2,18.6-31.9,8.9-50
				C838.6,329.4,820.1,327.5,806.8,326.9z"/>
		</g>
	</g>
</g>
</svg>
