<?xml version="1.0" encoding="utf-8"?>
<!-- Generator: Adobe Illustrator 24.0.2, SVG Export Plug-In . SVG Version: 6.00 Build 0)  -->
<svg version="1.1" id="Layer_1" xmlns="http://www.w3.org/2000/svg" xmlns:xlink="http://www.w3.org/1999/xlink" x="0px" y="0px"
	 viewBox="0 0 1449.4 920.8" style="enable-background:new 0 0 1449.4 920.8;" xml:space="preserve">
<style type="text/css">
	.st0{clip-path:url(#SVGID_2_);}
	.st1{fill:#262626;}
</style>
<title>Swirl</title>
<g>
	<defs>
		<rect id="SVGID_1_" x="-0.2" width="1449.6" height="920.8"/>
	</defs>
	<clipPath id="SVGID_2_">
		<use xlink:href="#SVGID_1_"  style="overflow:visible;"/>
	</clipPath>
	<g class="st0">
		<rect x="-0.2" width="1592.4" height="920.8"/>
		<g>
			<path class="st1" d="M701.6-1.2h245c37.5,25.1,79.7,40.1,125.9,43.3c45.3,3.1,90.9,3.6,136.4,5.4c41.2,1.6,77.7,14.3,109.4,38.6
				c44.5,34.1,69.5,79.5,84.1,129c16.1,54.7,28.3,110.4,41.7,165.8c16.2,67.4,33.8,134.7,47.2,202.6c11.6,58-8.5,107.4-62.4,142.7
				c-18.2,12-37.3,22.8-57.2,32.3c-47.4,22.3-96.3,42.3-143.2,65.5c-35.8,17.6-73,30-112.1,40.2c-69.2,17.9-137.6,38.3-206.4,57.7
				H777.6c-1.5-0.9-2.9-2.1-4.5-2.5c-75.4-17.7-138.1-55-191.1-105.6C451.4,688.9,401.4,537.6,409.5,368.1
				c1.8-38.4,11.6-75,34.6-108.1c23-33.1,52.8-61.2,85.5-86.2C596.2,122.8,641.6,55,701.6-1.2z M846.4,99.4
				c-18.8-0.7-53.6,5.2-85.4,21.6c-71.8,37.2-141.6,77.5-205.6,125.2c-56.5,42.1-84.8,96.3-82.2,163.7c1.6,41.6,7.9,82.4,19.8,122.5
				c28.2,94.7,75.4,179.3,159.5,243.5c54.9,41.9,118.2,66.7,190.5,59.6c111.5-10.9,218-38.3,313.3-94.9c14.5-8.6,29-17.8,44.6-24.4
				c44.9-19.1,90.2-37.5,135.9-55.3c63.1-24.8,87.7-62.9,81.5-129.9c-2.5-26.3-6.8-52.5-12.7-78.4c-14-62.2-27.2-124.8-53.1-184.1
				c-39.6-91-109.7-145.9-220.2-152.3C1042.8,111,953.4,105.7,846.4,99.4z"/>
			<path class="st1" d="M419.8-1.2h138c-49.1,57.2-97.5,114.8-147.3,171.5c-38.9,44.3-66.7,92.8-74.9,149.4
				c-8,54.6-14.4,109.3-23.4,163.8c-10.7,64.7,5.9,123.4,41.7,179c63.1,97.9,134.8,189.3,234.9,259.3H442.3c-1.3-1.8-2.6-3.4-4.2-5
				c-83-74.4-149.8-160.6-216.4-246.8c-49.4-63.9-59.8-133.8-34.5-208.4c22.9-67.6,45.7-135.2,67.5-203
				c14.3-44.3,36.3-86.2,65.1-124.1c31.5-41.9,63.1-83.8,94.5-125.7C416.6,5.6,418,2.1,419.8-1.2z"/>
			<path class="st1" d="M298.7-1.2c-1.8,3.8-3.1,7.9-5.4,11.4c-17.8,27.1-35.2,54.4-54,81c-44.4,62.8-70.9,132.3-94.7,203
				c-18.2,54.2-37.8,108-54,162.7c-25.5,85.9-7.8,165.9,47.7,238.6c57.7,75.7,116.3,150.8,174.5,226.2H177.5
				c-7.5-13.7-16.4-27-22.3-41.3c-24.2-58.5-56.2-113.3-93-166C39.3,681.7,20.1,647,9.7,609c-3.7-13.6-6.4-27.4-9.6-41.1v-66.7
				c1.4-7.5,2.3-15.1,4.2-22.5c19.4-75.9,37.6-152,58.8-227.4c23.3-82.9,66.5-158.1,112.8-232c4.1-6.5,6.8-13.8,10.1-20.7L298.7-1.2
				z"/>
			<path class="st1" d="M1343.8,921.7c44.2-34.3,88.8-68.3,132.5-103.3c17.2-13.8,32.6-29.5,48.1-44.9
				c49.1-48.7,63-104.6,43.3-168.5c-19.7-63.9-40.4-127.9-55.1-192.9c-16.4-72.1-27-145.3-39.3-218.2
				c-12.6-75.2-48.4-138.3-113.5-186.9c-3.6-2.7-6.9-5.6-10.3-8.4h118.3c0.3,1.2,0.2,2.7,0.9,3.6c50.9,66.2,70.3,142.2,83.8,220.3
				c13.7,79.1,28,158.2,43.1,237.1c11.1,58.8,36.8,113.4,59.4,168.9c7.5,18.4,12.6,37.4,15.4,56.8c5.7,40.6-12.5,75.5-37.9,107
				c-35.2,43.7-72.2,86.1-108.4,129.1L1343.8,921.7z"/>
			<path class="st1" d="M78.9-1.2C59.4,35.6,39.8,72.4,20.6,109.4C13.2,123.5,6.9,138.2,0,152.6V-1.2H78.9z"/>
			<path class="st1" d="M0,767.9c14.9,26.2,21.8,54.3,19.3,83.5c-1.9,23.6-7.1,46.9-10.9,70.3c-7,1.3-8.7-1.3-8.6-7.7
				C0.2,865.3,0,816.6,0,767.9z"/>
			<path class="st1" d="M1025.2,165.8c35.7,4.4,71.9,6.7,107.1,13.6c55.4,10.7,100.4,38.1,132.6,80.7c53.3,70.5,77.8,149,73.3,234.5
				c-1.5,28.6-17.2,51-44.2,66.3c-7.2,4.1-14.4,8.2-22.1,11.2c-58,22.2-110.2,53-159.7,88c-78.9,55.8-170.2,81.7-268.1,89.9
				c-79.7,6.7-145.3-21.2-198.2-74c-69.9-69.8-106.1-153.1-112.3-247c-3.8-58,22.7-104.4,70.6-141.5
				c48.5-37.5,104.6-63.1,163.6-83.7C850.5,174.9,937.2,168.3,1025.2,165.8z M596.2,448.3c5.2,65.2,36.4,128.7,98,178.6
				c39.6,32.1,86.9,47.3,139.6,45.5c61-2.1,119.5-15.3,169.5-48.3c42.1-27.8,81.3-59.1,121.4-89.3c24.6-18.5,49-37.2,72.5-56.8
				c28-23.4,39.4-52.8,37.2-87.5c-4.8-76.2-67.9-144.6-152.7-163.4c-58.9-13-118.3-10.9-177.6-2.6c-81.7,11.5-158.3,35.6-225.7,80.3
				C628.8,337.9,595.9,380.2,596.2,448.3z"/>
			<path class="st1" d="M960.8,265.6c31.4,1.2,62,4.5,90.7,16.5c58.4,24.4,78.2,74.8,45,124.7c-18.3,27.5-42,52.3-65.6,76.5
				c-26.2,26.7-53,53.4-83.2,76.1c-52.9,39.8-113.2,52.2-178.6,27.1c-87.2-33.5-147.7-152-47.9-238.1c48.5-41.8,108.2-63.6,172.7-75
				C915.9,269.4,938.5,268.1,960.8,265.6z M930.4,326.9c-54.7-0.1-109.9,23.2-139,59.1c-10.8,13.3-18.7,28.4-23.3,44.4
				c-12.3,45.7,24.3,85.7,71.8,77.8c17.4-2.9,36.8-11.3,48.9-22.7c28.7-27.3,54.5-57.2,79.5-87.4c11.8-14.2,21.5-31.9,10.3-50
				C967.1,329.4,945.7,327.5,930.4,326.9z"/>
		</g>
	</g>
</g>
</svg>
