<svg id="Layer_1" data-name="Layer 1" xmlns="http://www.w3.org/2000/svg" viewBox="0 0 1396.65 820.9"><defs><style>.cls-1{fill:#fff;}.cls-2{font-size:44.93px;fill:#ffe500;font-family:Gotham-Bold, Gotham;font-weight:700;}</style></defs><title>Our work</title><path class="cls-1" d="M424.88,292.38a190.25,190.25,0,0,1-40.69,60.4q-26,26-62,41t-78.51,15q-42.54,0-78.25-15T103.75,353.3a180.7,180.7,0,0,1-40.43-59.87Q48.86,259,48.88,219.65V218.6q0-39.39,14.7-73.78a190.39,190.39,0,0,1,40.7-60.4q26-26,62-41t78.51-15q42.54,0,78.25,15t61.7,40.44a181.13,181.13,0,0,1,40.44,59.87,188.75,188.75,0,0,1,14.44,73.78v1A185.7,185.7,0,0,1,424.88,292.38ZM355,218.6A122.64,122.64,0,0,0,346.9,174a110.14,110.14,0,0,0-58.56-61.7,107.85,107.85,0,0,0-44.63-9.19q-24.69,0-44.9,8.92a102.54,102.54,0,0,0-34.66,24.69,116.23,116.23,0,0,0-22.59,36.49,120.36,120.36,0,0,0-8.14,44.38v1a122.39,122.39,0,0,0,8.14,44.64,110.83,110.83,0,0,0,58.3,61.7q20.2,9.19,44.9,9.19a110.56,110.56,0,0,0,44.64-8.92,102.09,102.09,0,0,0,34.92-24.69A116.46,116.46,0,0,0,346.9,264,120.57,120.57,0,0,0,355,219.65Z"/><path class="cls-1" d="M647.54,402.4V362.16a171.44,171.44,0,0,1-15,17.19,104.33,104.33,0,0,1-18.12,14.55A90,90,0,0,1,592.4,404a93.43,93.43,0,0,1-27.31,3.71q-45.68,0-70.63-27.84t-24.94-76.67V120.92h79.82V277.56q0,28.29,12.6,42.7t35.71,14.4q23.11,0,36.5-14.4t13.39-42.7V120.92h79.83V402.4Z"/><path class="cls-1" d="M932.69,199.17q-39.91,0-62.75,24.16t-22.85,75.09v104H767.27V120.92h79.82v56.72q12.07-28.87,33.09-46.21t56.71-15.76v83.5Z"/><path class="cls-1" d="M469,789H398.63l-83-240.52L232.68,789H162.31L36.8,418.74h86.65l76.14,248.92,82.45-250h69.32l82.45,250L510,418.74h84.55Z"/><path class="cls-1" d="M860.71,703.11a145.19,145.19,0,0,1-32,46.47,151.53,151.53,0,0,1-48.31,31.51q-27.84,11.55-60.92,11.55-32.57,0-60.39-11.29a147.16,147.16,0,0,1-48-31,144,144,0,0,1-31.78-46.21,141.12,141.12,0,0,1-11.55-57v-1a141.16,141.16,0,0,1,11.55-57,145.19,145.19,0,0,1,32-46.48,151.93,151.93,0,0,1,48.31-31.51q27.82-11.54,60.92-11.55,32.55,0,60.39,11.29a147.28,147.28,0,0,1,48,31,144.25,144.25,0,0,1,31.78,46.21,141.29,141.29,0,0,1,11.55,57v1A141.29,141.29,0,0,1,860.71,703.11Zm-67.22-57a83.3,83.3,0,0,0-5.26-29.67,74.42,74.42,0,0,0-38.86-41.75,70.57,70.57,0,0,0-29.93-6.31q-17.33,0-30.72,6A68,68,0,0,0,665.87,591a72.86,72.86,0,0,0-14.44,24.42,87.1,87.1,0,0,0-5,29.67v1a83.12,83.12,0,0,0,5.26,29.67,75.26,75.26,0,0,0,38.59,41.75,70.09,70.09,0,0,0,30.2,6.3q17.32,0,30.72-6a67.88,67.88,0,0,0,22.85-16.54,72.86,72.86,0,0,0,14.44-24.42,87.38,87.38,0,0,0,5-29.67Z"/><path class="cls-1" d="M1063.93,583.11q-39.92,0-62.75,24.16t-22.85,75.09v104H898.51V504.86h79.82v56.72q12.07-28.87,33.09-46.22t56.71-15.75v83.5Z"/><path class="cls-1" d="M1267.69,786.34l-73.52-115-27.83,29.41v85.6h-79.83V403h79.83V607.27l93.47-102.41h95.58L1248.26,615.67l110.81,170.67Z"/><text class="cls-2" transform="translate(988.56 142.49)">The reason <tspan x="0" y="42.48">why we </tspan><tspan x="0" y="84.96">exist. It </tspan><tspan x="0" y="127.44">better be </tspan><tspan x="0" y="169.92">good.</tspan></text></svg>